# Blender v3.6.9 OBJ File: 'Custom Prop test4.0.blend'
# www.blender.org
mtllib sword.mtl
v -4.908484 1.481398 40.116909
v -4.908484 1.481398 40.028633
v -4.984585 1.481398 40.159698
v -4.908485 0.460336 40.116909
v -4.853519 1.481398 40.116909
v -4.798554 1.481398 40.116909
v -4.853519 0.460336 40.116909
v -4.853519 1.481398 40.159698
v -4.722453 1.481398 40.159698
v -4.853519 1.743530 40.159698
v -4.984585 1.743530 40.159698
v -4.722453 1.743530 40.159698
v -4.853519 1.743530 40.341667
v -4.984585 1.743530 40.341667
v -4.722453 1.743530 40.341667
v -4.853519 1.788514 40.341667
v -4.920158 1.788514 40.341667
v -4.786880 1.788514 40.341667
v -4.853519 1.788514 40.604176
v -4.920158 1.788514 40.604176
v -4.786880 1.788514 40.604176
v -4.853519 1.939547 40.604176
v -4.786880 1.939547 40.604176
v -4.920158 1.939547 40.604176
v -4.853519 1.939547 40.341667
v -4.786880 1.939547 40.341667
v -4.920158 1.939547 40.341667
v -4.853519 1.984530 40.341667
v -4.722453 1.984530 40.341667
v -4.984585 1.984530 40.341667
v -4.853519 1.984530 40.159698
v -4.984585 1.984530 40.159698
v -4.722453 1.984530 40.159698
v -4.853519 1.984530 40.157524
v -4.908772 1.984530 40.157524
v -4.798267 1.984530 40.157524
v -4.853519 4.077025 40.157524
v -4.908772 3.964964 40.157524
v -4.798267 3.964964 40.157524
v -4.853519 4.330516 40.028633
v -4.798267 4.188726 40.028633
v -4.908772 4.188726 40.028633
v -4.853519 4.077025 39.899742
v -4.798267 3.964964 39.899742
v -4.908772 3.964964 39.899742
v -4.853519 1.984530 39.899742
v -4.798267 1.984530 39.899742
v -4.908772 1.984530 39.899742
v -4.853519 1.984530 39.897568
v -4.722453 1.984530 39.897568
v -4.984585 1.984530 39.897568
v -4.853519 1.984530 39.715603
v -4.984585 1.984530 39.715603
v -4.722453 1.984530 39.715603
v -4.853519 1.939547 39.715603
v -4.920158 1.939547 39.715603
v -4.786880 1.939547 39.715603
v -4.853519 1.939547 39.453091
v -4.920158 1.939547 39.453091
v -4.786880 1.939547 39.453091
v -4.853519 1.788514 39.453091
v -4.786880 1.788514 39.453091
v -4.920158 1.788514 39.453091
v -4.853519 1.788514 39.715603
v -4.786880 1.788514 39.715603
v -4.920158 1.788514 39.715603
v -4.853519 1.743530 39.715603
v -4.722453 1.743530 39.715603
v -4.984585 1.743530 39.715603
v -4.853519 1.743530 39.897568
v -4.722453 1.743530 39.897568
v -4.984585 1.743530 39.897568
v -4.853519 1.481398 39.897568
v -4.984585 1.481398 39.897568
v -4.722453 1.481398 39.897568
v -4.853519 1.481398 39.940361
v -4.908484 1.481398 39.940361
v -4.798554 1.481398 39.940361
v -4.853519 0.460336 39.940361
v -4.908485 0.460336 39.940361
v -4.798554 0.460336 39.940361
v -4.853519 0.460336 40.028633
v -4.908485 0.460336 40.028633
v -4.798554 0.460336 40.028633
v -4.798554 0.460336 40.116909
v -4.798554 1.481398 40.028633
v -4.722453 1.481398 40.028633
v -4.722453 1.743530 40.028633
v -4.722453 1.984530 40.028633
v -4.798267 1.984530 40.028633
v -4.984585 1.481398 40.028633
v -4.984585 1.743530 40.028633
v -4.984585 1.984530 40.028633
v -4.908772 1.984530 40.028633
vt 0.708873 0.358050
vt 0.669509 0.358050
vt 0.669509 0.001114
vt 0.708873 0.001114
vt 0.727955 0.358821
vt 0.669508 0.358821
vt 0.708873 0.357493
vt 0.727955 0.357493
vt 0.809306 0.000537
vt 0.809512 0.000000
vt 0.809618 0.362495
vt 0.809412 0.363032
vt 0.809099 0.001073
vt 0.809205 0.363568
vt 0.708873 0.356936
vt 0.727955 0.356165
vt 0.877178 0.459188
vt 0.877151 0.366127
vt 0.877644 0.364848
vt 0.877671 0.457909
vt 0.878136 0.363568
vt 0.878163 0.456630
vt 0.727955 0.449127
vt 0.809099 0.449127
vt 0.809099 0.450455
vt 0.727955 0.450455
vt 0.727955 0.447799
vt 0.809099 0.447799
vt 0.878676 0.434437
vt 0.878926 0.433787
vt 0.879173 0.449128
vt 0.878681 0.450407
vt 0.878426 0.435088
vt 0.878188 0.451686
vt 0.598640 0.628087
vt 0.598640 0.534702
vt 0.599486 0.534702
vt 0.599486 0.628087
vt 0.597793 0.628087
vt 0.597793 0.534702
vt 0.666702 0.588322
vt 0.666452 0.588972
vt 0.666436 0.535353
vt 0.666687 0.534702
vt 0.666201 0.589622
vt 0.666186 0.536003
vt 0.876307 0.456953
vt 0.876307 0.550338
vt 0.875462 0.550338
vt 0.875462 0.456953
vt 0.877151 0.456953
vt 0.877151 0.550338
vt 0.878660 0.380818
vt 0.878410 0.381468
vt 0.878163 0.366127
vt 0.878656 0.364848
vt 0.878911 0.380167
vt 0.879148 0.363568
vt 0.215688 0.177683
vt 0.134543 0.177683
vt 0.134543 0.176358
vt 0.215688 0.176358
vt 0.215688 0.179009
vt 0.134543 0.179009
vt 0.216658 0.177683
vt 0.216658 0.178242
vt 0.216658 0.177125
vt 0.529298 0.742334
vt 0.529090 0.742873
vt 0.528874 0.000000
vt 0.529093 0.039245
vt 0.528883 0.743413
vt 0.528678 0.040323
vt 0.471202 0.819533
vt 0.471202 0.770527
vt 0.528678 0.692306
vt 0.528678 0.730920
vt 0.274134 0.949741
vt 0.274134 1.000000
vt 0.216658 0.911146
vt 0.216658 0.871308
vt 0.331611 0.871308
vt 0.331611 0.911146
vt 0.413725 0.730920
vt 0.413725 0.692306
vt 0.529713 0.743413
vt 0.529505 0.742873
vt 0.529721 0.000000
vt 0.529917 0.040323
vt 0.529298 0.742334
vt 0.529502 0.039245
vt 0.331611 0.177683
vt 0.331611 0.177125
vt 0.332581 0.176358
vt 0.332581 0.177683
vt 0.331611 0.178242
vt 0.332581 0.179009
vt 0.413725 0.176358
vt 0.413725 0.177683
vt 0.413725 0.179009
vt 0.878676 0.468936
vt 0.878426 0.468285
vt 0.878188 0.451686
vt 0.878681 0.452966
vt 0.878926 0.469586
vt 0.879173 0.454245
vt 0.876307 0.456953
vt 0.876307 0.363568
vt 0.877151 0.363568
vt 0.877151 0.456953
vt 0.875462 0.456953
vt 0.875462 0.363568
vt 0.665920 0.588972
vt 0.665670 0.588322
vt 0.665685 0.534702
vt 0.665936 0.535353
vt 0.666170 0.589622
vt 0.666186 0.536003
vt 0.530764 0.534702
vt 0.530764 0.628087
vt 0.529917 0.628087
vt 0.529917 0.534702
vt 0.531610 0.534702
vt 0.531610 0.628087
vt 0.878660 0.522555
vt 0.878911 0.523205
vt 0.879148 0.539804
vt 0.878656 0.538525
vt 0.878410 0.521905
vt 0.878163 0.537246
vt 0.611062 0.449127
vt 0.529917 0.449127
vt 0.529917 0.447799
vt 0.611062 0.447799
vt 0.611062 0.450455
vt 0.529917 0.450455
vt 0.877644 0.553529
vt 0.877671 0.460468
vt 0.878163 0.461747
vt 0.878136 0.554809
vt 0.877151 0.552250
vt 0.877178 0.459189
vt 0.630145 0.357493
vt 0.630145 0.358050
vt 0.611062 0.358821
vt 0.611062 0.357493
vt 0.630145 0.356936
vt 0.611062 0.356165
vt 0.809723 0.000000
vt 0.809930 0.000537
vt 0.809825 0.363032
vt 0.809618 0.362495
vt 0.810137 0.001073
vt 0.810031 0.363568
vt 0.630145 0.001114
vt 0.630145 0.000557
vt 0.669509 0.000557
vt 0.630145 0.000000
vt 0.669509 0.000000
vt 0.708873 0.000557
vt 0.708873 0.000000
vt 0.888865 0.357903
vt 0.849501 0.357903
vt 0.849501 0.000000
vt 0.888865 0.000000
vt 0.810136 0.357903
vt 0.810136 0.000000
vt 0.669509 0.356936
vt 0.669508 0.356165
vt 0.332581 0.000000
vt 0.332581 0.091883
vt 0.274134 0.091883
vt 0.274134 0.000000
vt 0.215688 0.091883
vt 0.215688 0.000000
vt 0.274134 0.176358
vt 0.274134 0.177125
vt 0.669508 0.450455
vt 0.669508 0.534702
vt 0.611062 0.534702
vt 0.727955 0.534702
vt 0.274134 0.178242
vt 0.274134 0.179009
vt 0.413725 0.000000
vt 0.471202 0.000000
vt 0.528678 0.000000
vt 0.529917 0.534702
vt 0.413725 0.091883
vt 0.597793 0.534702
vt 0.597793 0.628087
vt 0.809099 0.456953
vt 0.809099 0.363568
vt 0.134543 0.091883
vt 0.809099 0.534702
vt 0.665670 0.534702
vt 0.665670 0.628087
vt 0.809099 0.550338
vt 0.809099 0.456953
vn -1.0000 0.0000 0.0000
vn 0.0000 -1.0000 0.0000
vn 0.0000 0.0000 1.0000
vn 0.0000 1.0000 0.0000
vn -0.7374 0.3210 0.5943
vn 0.7374 0.3210 0.5943
vn 0.7374 0.3210 -0.5943
vn -0.7374 0.3210 -0.5943
vn -0.0000 0.0000 -1.0000
vn 1.0000 -0.0000 0.0000
vn 0.0001 0.0000 1.0000
vn -0.0001 0.0000 1.0000
usemtl None
s off
f 1/1/1 2/2/1 83/3/1 4/4/1
f 2/2/2 1/1/2 3/5/2 91/6/2
f 1/1/2 5/7/2 8/8/2 3/5/2
f 5/9/3 1/10/3 4/11/3 7/12/3
f 6/13/3 5/9/3 7/12/3 85/14/3
f 5/7/2 6/15/2 9/16/2 8/8/2
f 9/17/3 12/18/3 10/19/3 8/20/3
f 8/20/3 10/19/3 11/21/3 3/22/3
f 10/23/2 13/24/2 14/25/2 11/26/2
f 12/27/2 15/28/2 13/24/2 10/23/2
f 16/29/3 17/30/3 14/31/3 13/32/3
f 18/33/3 16/29/3 13/32/3 15/34/3
f 16/35/2 19/36/2 20/37/2 17/38/2
f 18/39/2 21/40/2 19/36/2 16/35/2
f 20/41/3 19/42/3 22/43/3 24/44/3
f 19/42/3 21/45/3 23/46/3 22/43/3
f 25/47/4 22/48/4 23/49/4 26/50/4
f 27/51/4 24/52/4 22/48/4 25/47/4
f 25/53/3 26/54/3 29/55/3 28/56/3
f 27/57/3 25/53/3 28/56/3 30/58/3
f 31/59/4 28/60/4 29/61/4 33/62/4
f 32/63/4 30/64/4 28/60/4 31/59/4
f 34/65/4 35/66/4 32/63/4 31/59/4
f 36/67/4 34/65/4 31/59/4 33/62/4
f 35/68/3 34/69/3 37/70/3 38/71/3
f 34/69/3 36/72/3 39/73/3 37/70/3
f 40/74/5 42/75/5 38/76/5 37/77/5
f 41/78/6 40/79/6 37/80/6 39/81/6
f 44/82/7 43/83/7 40/79/7 41/78/7
f 43/84/8 45/85/8 42/75/8 40/74/8
f 47/86/9 46/87/9 43/88/9 44/89/9
f 46/87/9 48/90/9 45/91/9 43/88/9
f 46/92/4 47/93/4 50/94/4 49/95/4
f 48/96/4 46/92/4 49/95/4 51/97/4
f 50/94/4 54/98/4 52/99/4 49/95/4
f 49/95/4 52/99/4 53/100/4 51/97/4
f 55/101/9 56/102/9 53/103/9 52/104/9
f 57/105/9 55/101/9 52/104/9 54/106/9
f 55/107/4 58/108/4 59/109/4 56/110/4
f 57/111/4 60/112/4 58/108/4 55/107/4
f 61/113/9 63/114/9 59/115/9 58/116/9
f 62/117/9 61/113/9 58/116/9 60/118/9
f 64/119/2 61/120/2 62/121/2 65/122/2
f 66/123/2 63/124/2 61/120/2 64/119/2
f 64/125/9 65/126/9 68/127/9 67/128/9
f 66/129/9 64/125/9 67/128/9 69/130/9
f 70/131/2 67/132/2 68/133/2 71/134/2
f 72/135/2 69/136/2 67/132/2 70/131/2
f 73/137/9 70/138/9 71/139/9 75/140/9
f 74/141/9 72/142/9 70/138/9 73/137/9
f 76/143/2 77/144/2 74/145/2 73/146/2
f 78/147/2 76/143/2 73/146/2 75/148/2
f 77/149/9 76/150/9 79/151/9 80/152/9
f 76/150/9 78/153/9 81/154/9 79/151/9
f 80/155/2 79/156/2 82/157/2 83/3/2
f 79/156/2 81/158/2 84/159/2 82/157/2
f 83/3/2 82/157/2 7/160/2 4/4/2
f 82/157/2 84/159/2 85/161/2 7/160/2
f 78/162/10 86/163/10 84/164/10 81/165/10
f 86/163/10 6/166/10 85/167/10 84/164/10
f 86/168/2 78/147/2 75/148/2 87/169/2
f 6/15/2 86/168/2 87/169/2 9/16/2
f 75/170/10 71/171/10 88/172/10 87/173/10
f 87/173/10 88/172/10 12/174/10 9/175/10
f 12/174/10 88/172/10 89/176/10 33/62/10
f 88/172/10 71/171/10 50/94/10 89/176/10
f 90/177/4 36/67/4 33/62/4 89/176/4
f 47/93/4 90/177/4 89/176/4 50/94/4
f 36/67/10 90/177/10 41/78/10 39/81/10
f 90/177/10 47/93/10 44/82/10 41/78/10
f 2/2/1 77/144/1 80/155/1 83/3/1
f 77/144/2 2/2/2 91/6/2 74/145/2
f 91/6/1 92/178/1 72/135/1 74/145/1
f 3/5/1 11/26/1 92/178/1 91/6/1
f 72/135/1 92/178/1 93/179/1 51/180/1
f 92/178/1 11/26/1 32/181/1 93/179/1
f 94/182/4 48/96/4 51/97/4 93/183/4
f 35/66/4 94/182/4 93/183/4 32/63/4
f 48/184/1 94/185/1 42/75/1 45/85/1
f 94/185/1 35/186/1 38/76/1 42/75/1
f 51/180/1 53/187/1 69/136/1 72/135/1
f 71/171/10 68/188/10 54/98/10 50/94/10
f 56/102/9 66/129/9 69/130/9 53/103/9
f 65/126/9 57/105/9 54/106/9 68/127/9
f 56/189/1 59/190/1 63/124/1 66/123/1
f 65/191/10 62/192/10 60/112/10 57/111/10
f 33/62/10 29/61/10 15/193/10 12/174/10
f 11/26/1 14/25/1 30/194/1 32/181/1
f 17/30/11 27/57/11 30/58/11 14/31/11
f 26/54/12 18/33/12 15/34/12 29/55/12
f 17/38/1 20/37/1 24/195/1 27/196/1
f 26/50/10 23/49/10 21/197/10 18/198/10
