# Blender v3.6.9 OBJ File: 'Custom Prop test4.0.blend'
# www.blender.org
mtllib chair.mtl
v -2.249344 3.243079 60.355186
v -2.249344 3.243079 60.175186
v -2.249344 3.543981 60.355186
v -2.049344 3.243079 60.355186
v -2.249344 0.705481 60.355186
v -2.249344 0.705481 60.175186
v -2.049344 0.705481 60.355186
v -2.049344 0.705481 60.175186
v -2.049344 3.243079 60.175186
v -2.049344 3.243079 58.555187
v -0.429343 3.243079 60.175186
v -0.429343 3.243079 60.355186
v -0.429343 3.243079 58.555187
v -0.249343 3.243079 60.175186
v -0.429343 0.705481 60.175186
v -0.429343 0.705481 60.355186
v -0.249343 0.705481 60.175186
v -0.249343 0.705481 60.355186
v -0.249343 3.243079 60.355186
v -0.249343 3.543981 60.355186
v -0.249343 3.543981 60.175186
v -0.429343 3.543981 60.355186
v -2.049344 3.543981 60.355186
v -0.429343 3.543981 60.175186
v -0.429343 6.039293 60.355186
v -2.049344 6.039293 60.355186
v -0.429343 6.039293 60.175186
v -2.049344 6.039293 60.175186
v -2.049344 3.543981 60.175186
v -2.049344 3.543981 58.555187
v -2.249344 3.543981 60.175186
v -2.249344 3.543981 58.555187
v -2.249344 3.543981 58.355186
v -2.249344 3.243079 58.555187
v -2.249344 3.243079 58.355186
v -2.249344 0.705481 58.555187
v -2.249344 0.705481 58.355186
v -2.049344 0.705481 58.555187
v -2.049344 0.705481 58.355186
v -2.049344 3.243079 58.355186
v -0.429343 3.243079 58.355186
v -2.049344 3.543981 58.355186
v -0.429343 3.543981 58.355186
v -0.249343 3.543981 58.355186
v -0.429343 3.543981 58.555187
v -0.249343 3.543981 58.555187
v -0.249343 3.243079 58.555187
v -0.249343 3.243079 58.355186
v -0.249343 0.705481 58.555187
v -0.249343 0.705481 58.355186
v -0.429343 0.705481 58.555187
v -0.429343 0.705481 58.355186
vt 0.453710 0.056414
vt 0.464895 0.056414
vt 0.464895 0.532171
vt 0.453710 0.532171
vt 0.453710 0.000000
vt 0.464895 0.000000
vt 0.204169 0.524243
vt 0.204169 0.467829
vt 0.226855 0.467829
vt 0.226855 0.524243
vt 0.226855 1.000000
vt 0.204169 1.000000
vt 0.510204 0.532171
vt 0.510204 0.554857
vt 0.499019 0.554857
vt 0.499019 0.532171
vt 0.931385 0.000000
vt 0.942570 0.000000
vt 0.942570 0.475757
vt 0.931385 0.475757
vt 0.886014 0.000000
vt 0.908700 0.000000
vt 0.908700 0.475757
vt 0.886014 0.475757
vt 0.339946 0.736340
vt 0.339946 0.552588
vt 0.351131 0.552588
vt 0.351131 0.736340
vt 0.239283 0.759026
vt 0.239283 0.736340
vt 0.339946 0.759026
vt 0.239283 0.552588
vt 0.767951 0.467829
vt 0.779136 0.467829
vt 0.779136 0.943586
vt 0.767951 0.943586
vt 0.239283 0.532171
vt 0.339946 0.532171
vt 0.702262 0.467829
vt 0.722679 0.467829
vt 0.722679 0.943586
vt 0.702262 0.943586
vt 0.533817 0.532171
vt 0.533817 0.552588
vt 0.522632 0.552588
vt 0.522632 0.532171
vt 0.691077 0.056414
vt 0.702262 0.056414
vt 0.702262 0.532171
vt 0.691077 0.532171
vt 0.000000 0.524243
vt 0.020417 0.524243
vt 0.020417 1.000000
vt 0.000000 1.000000
vt 0.000000 0.467829
vt 0.020417 0.467829
vt 0.691077 0.000000
vt 0.702262 0.000000
vt 0.362316 0.532171
vt 0.362316 0.552588
vt 0.351131 0.552588
vt 0.351131 0.532171
vt 0.020417 0.000000
vt 0.204169 0.000000
vt 0.790321 0.935658
vt 0.779136 0.935658
vt 0.779136 0.467829
vt 0.790321 0.467829
vt 0.486592 0.532171
vt 0.486592 0.715924
vt 0.475407 0.715924
vt 0.475407 0.532171
vt 0.886014 0.467829
vt 0.702262 0.467829
vt 0.702262 0.000000
vt 0.886014 0.000000
vt 0.801506 0.935658
vt 0.790321 0.935658
vt 0.790321 0.467829
vt 0.801506 0.467829
vt 0.362316 0.736341
vt 0.362316 0.759026
vt 0.351131 0.759026
vt 0.351131 0.736341
vt 0.462979 0.736341
vt 0.462979 0.759026
vt 0.462979 0.552588
vt 0.565558 0.000000
vt 0.565558 0.056414
vt 0.475407 0.736341
vt 0.475407 0.759026
vt 0.577986 0.000000
vt 0.577986 0.056414
vt 0.577986 0.532171
vt 0.565558 0.532171
vt 0.908700 0.000000
vt 0.931385 0.000000
vt 0.931385 0.475757
vt 0.908700 0.475757
vt 0.499019 0.532171
vt 0.499019 0.554857
vt 0.486592 0.554857
vt 0.486592 0.532171
vt 0.743096 0.467829
vt 0.755523 0.467829
vt 0.755523 0.943586
vt 0.743096 0.943586
vt 0.226855 0.056414
vt 0.249540 0.056414
vt 0.249540 0.532171
vt 0.226855 0.532171
vt 0.226855 0.000000
vt 0.249540 0.000000
vt 0.226855 0.736340
vt 0.226855 0.552588
vt 0.433293 0.000000
vt 0.433293 0.056414
vt 0.475407 0.552588
vt 0.475407 0.532171
vt 0.462979 0.532171
vt 0.453710 0.000000
vt 0.453710 0.056414
vt 0.577986 0.056414
vt 0.577986 0.000000
vt 0.590413 0.000000
vt 0.590413 0.056414
vt 0.590413 0.532171
vt 0.577986 0.532171
vt 0.722679 0.467829
vt 0.743096 0.467829
vt 0.743096 0.943586
vt 0.722679 0.943586
vt 0.522632 0.532171
vt 0.522632 0.552588
vt 0.510204 0.552588
vt 0.510204 0.532171
vt 0.755523 0.467829
vt 0.767951 0.467829
vt 0.767951 0.943586
vt 0.755523 0.943586
vt 0.453710 0.532171
vt 0.433293 0.532171
vn -1.0000 0.0000 0.0000
vn 0.0000 0.0000 1.0000
vn 0.0000 -1.0000 0.0000
vn 1.0000 0.0000 0.0000
vn 0.0000 0.0000 -1.0000
vn 0.0000 1.0000 0.0000
usemtl None
s off
f 1/1/1 2/2/1 6/3/1 5/4/1
f 1/1/1 3/5/1 31/6/1 2/2/1
f 4/7/2 23/8/2 3/9/2 1/10/2
f 4/7/2 1/10/2 5/11/2 7/12/2
f 6/13/3 8/14/3 7/15/3 5/16/3
f 9/17/4 4/18/4 7/19/4 8/20/4
f 2/21/5 9/22/5 8/23/5 6/24/5
f 9/25/3 11/26/3 12/27/3 4/28/3
f 34/29/3 10/30/3 9/25/3 2/31/3
f 10/30/3 13/32/3 11/26/3 9/25/3
f 12/33/1 11/34/1 15/35/1 16/36/1
f 13/32/3 47/37/3 14/38/3 11/26/3
f 11/39/5 14/40/5 17/41/5 15/42/5
f 15/43/3 17/44/3 18/45/3 16/46/3
f 14/47/4 19/48/4 18/49/4 17/50/4
f 19/51/2 12/52/2 16/53/2 18/54/2
f 19/51/2 20/55/2 22/56/2 12/52/2
f 14/47/4 21/57/4 20/58/4 19/48/4
f 21/59/6 24/60/6 22/61/6 20/62/6
f 23/8/2 22/56/2 25/63/2 26/64/2
f 12/52/2 22/56/2 23/8/2 4/7/2
f 22/65/4 24/66/4 27/67/4 25/68/4
f 27/69/6 28/70/6 26/71/6 25/72/6
f 24/73/5 29/74/5 28/75/5 27/76/5
f 29/77/1 23/78/1 26/79/1 28/80/1
f 29/81/6 31/82/6 3/83/6 23/84/6
f 30/85/6 32/86/6 31/82/6 29/81/6
f 45/87/6 30/85/6 29/81/6 24/60/6
f 2/2/1 31/6/1 32/88/1 34/89/1
f 42/90/6 33/91/6 32/86/6 30/85/6
f 34/89/1 32/88/1 33/92/1 35/93/1
f 34/89/1 35/93/1 37/94/1 36/95/1
f 10/96/2 34/97/2 36/98/2 38/99/2
f 37/100/3 39/101/3 38/102/3 36/103/3
f 40/104/4 10/105/4 38/106/4 39/107/4
f 35/108/5 40/109/5 39/110/5 37/111/5
f 35/108/5 33/112/5 42/113/5 40/109/5
f 40/114/3 41/115/3 13/32/3 10/30/3
f 40/109/5 42/113/5 43/116/5 41/117/5
f 43/118/6 42/90/6 30/85/6 45/87/6
f 44/119/6 43/118/6 45/87/6 46/120/6
f 41/117/5 43/116/5 44/121/5 48/122/5
f 46/120/6 45/87/6 24/60/6 21/59/6
f 48/123/4 44/124/4 46/125/4 47/126/4
f 47/126/4 46/125/4 21/57/4 14/47/4
f 48/123/4 47/126/4 49/127/4 50/128/4
f 47/129/2 13/130/2 51/131/2 49/132/2
f 52/133/3 50/134/3 49/135/3 51/136/3
f 13/137/1 41/138/1 52/139/1 51/140/1
f 41/117/5 48/122/5 50/141/5 52/142/5
